<mxfile host="app.diagrams.net" agent="Mozilla/5.0 (Windows NT 10.0; Win64; x64) AppleWebKit/537.36 (KHTML, like Gecko) Chrome/133.0.0.0 Safari/537.36" version="26.0.16">
  <diagram name="Page-1" id="crwiCeAto7Z1d1H3DH4H">
    <mxGraphModel dx="1050" dy="618" grid="1" gridSize="10" guides="1" tooltips="1" connect="1" arrows="1" fold="1" page="1" pageScale="1" pageWidth="827" pageHeight="1169" math="0" shadow="0">
      <root>
        <mxCell id="0" />
        <mxCell id="1" parent="0" />
        <mxCell id="29iSTUJfdctbS0fgok_z-1" value="" style="outlineConnect=0;dashed=0;verticalLabelPosition=bottom;verticalAlign=top;align=center;html=1;shape=mxgraph.aws3.connect;fillColor=#759C3E;gradientColor=none;" vertex="1" parent="1">
          <mxGeometry x="190" y="160" width="480" height="69" as="geometry" />
        </mxCell>
        <mxCell id="29iSTUJfdctbS0fgok_z-2" value="" style="outlineConnect=0;dashed=0;verticalLabelPosition=bottom;verticalAlign=top;align=center;html=1;shape=mxgraph.aws3.lex;fillColor=#2E73B8;gradientColor=none;" vertex="1" parent="1">
          <mxGeometry x="375" y="260" width="76.5" height="81" as="geometry" />
        </mxCell>
        <mxCell id="29iSTUJfdctbS0fgok_z-3" value="" style="sketch=0;points=[[0,0,0],[0.25,0,0],[0.5,0,0],[0.75,0,0],[1,0,0],[0,1,0],[0.25,1,0],[0.5,1,0],[0.75,1,0],[1,1,0],[0,0.25,0],[0,0.5,0],[0,0.75,0],[1,0.25,0],[1,0.5,0],[1,0.75,0]];outlineConnect=0;fontColor=#232F3E;fillColor=#ED7100;strokeColor=#ffffff;dashed=0;verticalLabelPosition=bottom;verticalAlign=top;align=center;html=1;fontSize=12;fontStyle=0;aspect=fixed;shape=mxgraph.aws4.resourceIcon;resIcon=mxgraph.aws4.lambda;" vertex="1" parent="1">
          <mxGeometry x="420" y="342" width="78" height="78" as="geometry" />
        </mxCell>
        <mxCell id="29iSTUJfdctbS0fgok_z-4" value="Amazon DynamoDB" style="sketch=0;outlineConnect=0;fontColor=#232F3E;gradientColor=none;strokeColor=#ffffff;fillColor=#232F3E;dashed=0;verticalLabelPosition=middle;verticalAlign=bottom;align=center;html=1;whiteSpace=wrap;fontSize=10;fontStyle=1;spacing=3;shape=mxgraph.aws4.productIcon;prIcon=mxgraph.aws4.dynamodb;" vertex="1" parent="1">
          <mxGeometry x="470" y="430" width="80" height="110" as="geometry" />
        </mxCell>
        <mxCell id="29iSTUJfdctbS0fgok_z-5" value="&lt;div&gt;purpose&lt;/div&gt;&lt;div&gt;/Phone&amp;nbsp;&amp;nbsp;&lt;/div&gt;" style="image;aspect=fixed;html=1;points=[];align=center;fontSize=12;image=img/lib/azure2/other/Defender_Slot.svg;" vertex="1" parent="1">
          <mxGeometry x="290" y="420" width="68" height="68" as="geometry" />
        </mxCell>
        <mxCell id="29iSTUJfdctbS0fgok_z-6" value="What service you would&amp;nbsp; like to avail&amp;nbsp;" style="fontStyle=0;html=1;whiteSpace=wrap;" vertex="1" parent="1">
          <mxGeometry x="230" y="280.5" width="120" height="40" as="geometry" />
        </mxCell>
        <mxCell id="29iSTUJfdctbS0fgok_z-7" value="Best way to revert back" style="fontStyle=0;html=1;whiteSpace=wrap;" vertex="1" parent="1">
          <mxGeometry x="230" y="341" width="120" height="40" as="geometry" />
        </mxCell>
        <mxCell id="29iSTUJfdctbS0fgok_z-8" value="Elicitation" style="swimlane;fontStyle=4;align=center;verticalAlign=top;childLayout=stackLayout;horizontal=1;startSize=60;horizontalStack=0;resizeParent=1;resizeParentMax=0;resizeLast=0;collapsible=0;marginBottom=0;html=1;rounded=1;absoluteArcSize=1;arcSize=50;whiteSpace=wrap;" vertex="1" parent="1">
          <mxGeometry x="530" y="280.5" width="140" height="126" as="geometry" />
        </mxCell>
        <mxCell id="29iSTUJfdctbS0fgok_z-11" value="" style="line;strokeWidth=1;fillColor=none;align=left;verticalAlign=middle;spacingTop=-1;spacingLeft=3;spacingRight=3;rotatable=0;labelPosition=right;points=[];portConstraint=eastwest;" vertex="1" parent="29iSTUJfdctbS0fgok_z-8">
          <mxGeometry y="60" width="140" height="8" as="geometry" />
        </mxCell>
        <mxCell id="29iSTUJfdctbS0fgok_z-12" value="confirmation" style="fillColor=none;strokeColor=none;align=left;verticalAlign=middle;spacingLeft=5;whiteSpace=wrap;html=1;" vertex="1" parent="29iSTUJfdctbS0fgok_z-8">
          <mxGeometry y="68" width="140" height="25" as="geometry" />
        </mxCell>
        <mxCell id="29iSTUJfdctbS0fgok_z-13" value="" style="line;strokeWidth=1;fillColor=none;align=left;verticalAlign=middle;spacingTop=-1;spacingLeft=3;spacingRight=3;rotatable=0;labelPosition=right;points=[];portConstraint=eastwest;" vertex="1" parent="29iSTUJfdctbS0fgok_z-8">
          <mxGeometry y="93" width="140" height="8" as="geometry" />
        </mxCell>
        <mxCell id="29iSTUJfdctbS0fgok_z-14" value="fulfilment" style="fillColor=none;strokeColor=none;align=left;verticalAlign=middle;spacingLeft=5;whiteSpace=wrap;html=1;" vertex="1" parent="29iSTUJfdctbS0fgok_z-8">
          <mxGeometry y="101" width="140" height="25" as="geometry" />
        </mxCell>
        <mxCell id="29iSTUJfdctbS0fgok_z-18" value="" style="endArrow=classic;html=1;rounded=0;exitX=1.071;exitY=0.6;exitDx=0;exitDy=0;exitPerimeter=0;" edge="1" parent="1" source="29iSTUJfdctbS0fgok_z-5" target="29iSTUJfdctbS0fgok_z-4">
          <mxGeometry width="50" height="50" relative="1" as="geometry">
            <mxPoint x="340" y="520" as="sourcePoint" />
            <mxPoint x="390" y="470" as="targetPoint" />
          </mxGeometry>
        </mxCell>
      </root>
    </mxGraphModel>
  </diagram>
</mxfile>
